<?xml version="1.0" standalone="no"?>
<!DOCTYPE svg PUBLIC "-//W3C//DTD SVG 20010904//EN"
 "http://www.w3.org/TR/2001/REC-SVG-20010904/DTD/svg10.dtd">
<svg version="1.0" xmlns="http://www.w3.org/2000/svg"
 width="245.000000pt" height="245.000000pt" viewBox="0 0 245.000000 245.000000"
 preserveAspectRatio="xMidYMid meet">
<metadata>
Created by potrace 1.11, written by Peter Selinger 2001-2013
</metadata>
<g transform="translate(0.000000,245.000000) scale(0.100000,-0.100000)"
fill="#000000" stroke="none">
<path d="M1080 2443 c-63 -8 -208 -42 -258 -62 -27 -11 -53 -17 -56 -14 -3 4
-6 1 -6 -5 0 -7 -5 -12 -11 -12 -15 0 -147 -66 -183 -92 -157 -111 -267 -218
-342 -330 -27 -40 -51 -75 -54 -78 -14 -14 -81 -165 -108 -245 -45 -133 -60
-238 -56 -400 1 -77 6 -158 9 -180 10 -58 51 -203 71 -250 10 -22 18 -42 19
-45 7 -36 97 -184 159 -264 73 -94 264 -266 295 -266 6 0 11 -3 11 -7 0 -5 10
-13 23 -19 12 -6 54 -27 92 -47 87 -44 251 -99 290 -98 2 0 19 -5 37 -10 42
-14 324 -20 374 -9 22 5 53 11 69 13 91 15 286 80 293 99 2 4 10 8 17 8 24 0
167 90 239 150 97 81 221 226 275 320 22 39 69 134 70 143 0 4 7 21 16 37 19
37 63 199 73 265 3 28 6 118 6 200 -1 128 -5 167 -28 265 -16 63 -32 119 -37
125 -5 5 -9 15 -9 22 0 27 -122 258 -150 283 -3 3 -18 23 -35 45 -79 108 -345
325 -398 325 -10 0 -17 4 -17 9 0 5 -10 13 -22 16 -13 4 -41 15 -64 25 -39 18
-126 45 -175 56 -13 2 -46 9 -74 15 -51 11 -292 19 -355 12z"/>
</g>
</svg>
